{"title":"The Nut Job 2013 TS x264 AC3 TiTAN","uid":9785992,"size":1090528100,"categoryP":"video","categoryS":"movies","magnet":"?xt=urn:btih:a33a493ce1a088ff71d8607c97b0d3a8a2702c70&amp;dn=The+Nut+Job+2013+TS+x264+AC3+TiTAN&amp;tr=udp%3A%2F%2Ftracker.openbittorrent.com%3A80&amp;tr=udp%3A%2F%2Fopen.demonii.com%3A1337&amp;tr=udp%3A%2F%2Ftracker.coppersurfer.tk%3A6969&amp;tr=udp%3A%2F%2Fexodus.desync.com%3A6969","seeders":1,"leechers":0,"uploader":".BONE.","files":2,"time":1395160954,"description":"An incorrigibly self-serving exiled squirrel finds himself helping his former park brethren raid a nut store to survive, that is also the front for a human gang's bank robbery.\n &lt;a href=&quot;\nhttp://www.imdb.com/title/tt1821658/&quot; rel=&quot;nofollow&quot; target=&quot;_NEW&quot;&gt;\nhttp://www.imdb.com/title/tt1821658/&lt;/a&gt;\n\nSource: AmStErDaM VOBS - Thx/ MiLLENiUM (THX)\n\nTook our nice clean Unsubbed Vid and threw MiLLENiUM's line on it.. As good as it gets till retail .. Enjoy\n\nVideo\nID: 1\nFormat: AVC\nFormat/Info: Advanced Video Codec\nFormat profile: &lt;a class=&quot;__cf_email__&quot; href=&quot;/cdn-cgi/l/email-protection&quot; data-cfemail=&quot;1a52737d725a5629342a&quot;&gt;[email&amp;#160;protected]&lt;/a&gt;&lt;script cf-hash='f9e31' type=&quot;text/javascript&quot;&gt;\n/* &lt;![CDATA[ */!function(){try{var t=&quot;currentScript&quot;in document?document.currentScript:function(){for(var t=document.getElementsByTagName(&quot;script&quot;),e=t.length;e--;)if(t[e].getAttribute(&quot;cf-hash&quot;))return t[e]}();if(t&amp;&amp;t.previousSibling){var e,r,n,i,c=t.previousSibling,a=c.getAttribute(&quot;data-cfemail&quot;);if(a){for(e=&quot;&quot;,r=parseInt(a.substr(0,2),16),n=2;a.length-n;n+=2)i=parseInt(a.substr(n,2),16)^r,e+=String.fromCharCode(i);e=document.createTextNode(e),c.parentNode.replaceChild(e,c)}}}catch(u){}}();/* ]]&gt; */&lt;/script&gt;\nFormat settings, CABAC: Yes\nFormat settings, ReFrames: 4 frames\nCodec ID: V_MPEG4/ISO/AVC\nDuration: 1h 17mn\nBit rate: 1 671 Kbps\nWidth: 720 pixels\nHeight: 384 pixels\nDisplay aspect ratio: 1.85:1\nFrame rate mode: Constant\nFrame rate: 29.970 fps\nColor space: YUV\nChroma subsampling: 4:2:0\nBit depth: 8 bits\nScan type: Progressive\nBits/(Pixel*Frame): 0.202\nStream size: 912 MiB (88%)\nWriting library: x264 core 138 r2358 9e941d1\nDefault: Yes\nForced: No\n\nAudio\nID: 2\nFormat: AC-3\nFormat/Info: Audio Coding 3\nMode extension: CM (complete main)\nFormat settings, Endianness: Big\nCodec ID: A_AC3\nDuration: 1h 17mn\nBit rate mode: Constant\nBit rate: 192 Kbps\nChannel(s): 2 channels\nChannel positions: Front: L R\nSampling rate: 44.1 KHz\nBit depth: 16 bits\nCompression mode: Lossy\nStream size: 107 MiB (10%)\nDefault: Yes\nForced: No\n &lt;a href=&quot;\nhttp://t1.someimage.com/rEQFYD5.jpg&quot; rel=&quot;nofollow&quot; target=&quot;_NEW&quot;&gt;\nhttp://t1.someimage.com/rEQFYD5.jpg&lt;/a&gt; &lt;a href=&quot;\nhttp://t1.someimage.com/A71tUxy.jpg&quot; rel=&quot;nofollow&quot; target=&quot;_NEW&quot;&gt;\nhttp://t1.someimage.com/A71tUxy.jpg&lt;/a&gt; &lt;a href=&quot;\nhttp://t1.someimage.com/1ETS0Ca.jpg&quot; rel=&quot;nofollow&quot; target=&quot;_NEW&quot;&gt;\nhttp://t1.someimage.com/1ETS0Ca.jpg&lt;/a&gt; &lt;a href=&quot;\nhttp://t1.someimage.com/pPaxlg7.jpg&quot; rel=&quot;nofollow&quot; target=&quot;_NEW&quot;&gt;\nhttp://t1.someimage.com/pPaxlg7.jpg&lt;/a&gt; &lt;a href=&quot;\nhttp://t1.someimage.com/fZUhEuj.jpg&quot; rel=&quot;nofollow&quot; target=&quot;_NEW&quot;&gt;\nhttp://t1.someimage.com/fZUhEuj.jpg&lt;/a&gt;","torrent":{"xt":"urn:btih:a33a493ce1a088ff71d8607c97b0d3a8a2702c70","amp;dn":"The+Nut+Job+2013+TS+x264+AC3+TiTAN","amp;tr":["udp%3A%2F%2Ftracker.openbittorrent.com%3A80","udp%3A%2F%2Fopen.demonii.com%3A1337","udp%3A%2F%2Ftracker.coppersurfer.tk%3A6969","udp%3A%2F%2Fexodus.desync.com%3A6969"],"infoHash":"a33a493ce1a088ff71d8607c97b0d3a8a2702c70","infoHashBuffer":{"type":"Buffer","data":[163,58,73,60,225,160,136,255,113,216,96,124,151,176,211,168,162,112,44,112]},"announce":[],"urlList":[]}}